<svg viewBox="0 0 64 64" xmlns="http://www.w3.org/2000/svg" aria-hidden="true">
  <defs>
    <linearGradient id="hexmeldGradient" x1="16" y1="6" x2="52" y2="58" gradientUnits="userSpaceOnUse">
      <stop offset="0" stop-color="#6c7bff"/>
      <stop offset="1" stop-color="#1b2a6d"/>
    </linearGradient>
    <radialGradient id="hexmeldGlow" cx="32" cy="24" r="26" gradientUnits="userSpaceOnUse">
      <stop offset="0" stop-color="#9fb5ff" stop-opacity=".9"/>
      <stop offset="1" stop-color="#6c7bff" stop-opacity="0"/>
    </radialGradient>
    <radialGradient id="ballShine" cx="0.35" cy="0.35">
      <stop offset="0" stop-color="#fff" stop-opacity=".6"/>
      <stop offset="0.5" stop-color="#ffe27a" stop-opacity=".3"/>
      <stop offset="1" stop-color="#ffe27a" stop-opacity="0"/>
    </radialGradient>
  </defs>
  <path d="M32 3 58 17v30L32 61 6 47V17z" fill="url(#hexmeldGradient)" stroke="#0b1020" stroke-width="2"/>
  <path d="M32 9 50 19v22L32 51 14 41V19z" fill="url(#hexmeldGlow)" opacity=".75"/>
  <!-- Subtle connection lines from inner hex vertices -->
  <!-- g stroke="#dfe5ff" stroke-width="1.5" opacity="1" fill="none">
    <path d="M32 14L32 10"/>
    <path d="M44 21L48 19"/>
    <path d="M44 35L48 37"/>
    <path d="M32 42L32 46"/>
    <path d="M20 35L16 37"/>
    <path d="M20 21L16 19"/>
  </g -->
  <path d="M32 14 44 21v14L32 42 20 35V21z" fill="#0b1020" fill-opacity=".65" stroke="#dfe5ff" stroke-width="1.5"/>
  <g fill="none" stroke="#cdd5ff" stroke-width="2" stroke-linecap="round" stroke-linejoin="round">
    <path d="M32 18v18"/>
    <path d="M24 26l8 4 8-4"/>
  </g>
  <!-- Balls with depth -->
  <g>
    <circle cx="32" cy="28" r="3.6" fill="#ffe27a" stroke="#0b1020" stroke-width="1.2"/>
    <circle cx="32" cy="28" r="3.6" fill="url(#ballShine)"/>

    <circle cx="24" cy="24" r="2.6" fill="#ffe27a" stroke="#0b1020" stroke-width="1.2"/>
    <circle cx="24" cy="24" r="2.6" fill="url(#ballShine)"/>

    <circle cx="40" cy="32" r="2.6" fill="#ffe27a" stroke="#0b1020" stroke-width="1.2"/>
    <circle cx="40" cy="32" r="2.6" fill="url(#ballShine)"/>
  </g>
</svg>
